<svg width="120" height="32" viewBox="0 0 120 32" fill="none" xmlns="http://www.w3.org/2000/svg">
  <path d="M8.4 24V8.8H20.4V11.6H11.6V14.8H19.2V17.6H11.6V24H8.4Z" fill="white"/>
  <path d="M22.8 24L29.2 8.8H32.8L39.2 24H35.6L34.4 21.2H27.6L26.4 24H22.8ZM28.8 18.4H33.2L31 13.2L28.8 18.4Z" fill="white"/>
  <path d="M49.2 24.4C46.8 24.4 44.8 23.6 43.2 22C41.6 20.4 40.8 18.4 40.8 16C40.8 13.6 41.6 11.6 43.2 10C44.8 8.4 46.8 7.6 49.2 7.6C51.2 7.6 52.8 8.2 54 9.4C55.2 10.6 55.8 12.2 55.8 14.4H52.4C52.4 13.2 52 12.2 51.2 11.4C50.4 10.6 49.2 10.2 47.6 10.2C46 10.2 44.8 10.8 44 12C43.2 13.2 42.8 14.4 42.8 15.6C42.8 16.8 43.2 18 44 19.2C44.8 20.4 46 21 47.6 21C49.2 21 50.4 20.6 51.2 19.8C52 19 52.4 18 52.4 16.8H55.8C55.8 19 55.2 20.6 54 21.8C52.8 23 51.2 23.6 49.2 24.4Z" fill="white"/>
  <path d="M58.4 24V11.6H54.8V8.8H65.2V11.6H61.6V24H58.4Z" fill="white"/>
  <path d="M75.2 24.4C72.8 24.4 70.8 23.6 69.2 22C67.6 20.4 66.8 18.4 66.8 16C66.8 13.6 67.6 11.6 69.2 10C70.8 8.4 72.8 7.6 75.2 7.6C77.6 7.6 79.6 8.4 81.2 10C82.8 11.6 83.6 13.6 83.6 16C83.6 18.4 82.8 20.4 81.2 22C79.6 23.6 77.6 24.4 75.2 24.4ZM75.2 21.6C76.8 21.6 78 21 78.8 19.8C79.6 18.6 80 17.4 80 16.2C80 15 79.6 13.8 78.8 12.6C78 11.4 76.8 10.8 75.2 10.8C73.6 10.8 72.4 11.4 71.6 12.6C70.8 13.8 70.4 15 70.4 16.2C70.4 17.4 70.8 18.6 71.6 19.8C72.4 21 73.6 21.6 75.2 21.6Z" fill="white"/>
  <path d="M86.4 24V8.8H91.2C93.2 8.8 94.8 9.4 96 10.6C97.2 11.8 97.8 13.4 97.8 15.4C97.8 17.4 97.2 19 96 20.2C94.8 21.4 93.2 22 91.2 22H89.6V24H86.4ZM89.6 19.2H91.2C92.4 19.2 93.2 18.8 93.6 18C94 17.2 94.2 16.4 94.2 15.4C94.2 14.4 94 13.6 93.6 12.8C93.2 12 92.4 11.6 91.2 11.6H89.6V19.2Z" fill="white"/>
  <path d="M100.8 24V8.8H104V21.2H110.4V24H100.8Z" fill="white"/>
  <path d="M112.8 24V8.8H116V24H112.8Z" fill="white"/>
</svg>